<mxfile host="app.diagrams.net" modified="2021-06-25T18:09:17.389Z" agent="5.0 (Windows NT 10.0; Win64; x64) AppleWebKit/537.36 (KHTML, like Gecko) Chrome/91.0.4472.101 Safari/537.36 OPR/77.0.4054.90" etag="6qs2syH_BbNqiO3A70rd" version="14.8.0" type="github" pages="6">
  <diagram id="hybF_AHONoGxi9Xy7w8x" name="HighAvailabilityIAMDesignPattern">
    <mxGraphModel dx="1382" dy="764" grid="1" gridSize="10" guides="1" tooltips="1" connect="1" arrows="1" fold="1" page="1" pageScale="1" pageWidth="827" pageHeight="1169" math="0" shadow="0">
      <root>
        <mxCell id="0" />
        <mxCell id="1" parent="0" />
        <mxCell id="SZYIprdb0noJJP8OvCxE-5" value="&lt;h1 class=&quot;lb-h2 blog-post-title&quot; style=&quot;box-sizing: border-box ; margin: 0px ; color: rgb(35 , 47 , 62) ; font-weight: 500 ; font-family: &amp;#34;amazonemberbold&amp;#34; , &amp;#34;helvetica neue bold&amp;#34; , &amp;#34;helvetica neue&amp;#34; , &amp;#34;helvetica&amp;#34; , &amp;#34;arial&amp;#34; , sans-serif ; font-size: 2.4rem ; line-height: 1.3&quot;&gt;High-Availability IAM Design Patterns&lt;/h1&gt;" style="text;html=1;strokeColor=none;fillColor=none;align=left;verticalAlign=middle;whiteSpace=wrap;rounded=0;" vertex="1" parent="1">
          <mxGeometry x="40" y="40" width="800" height="130" as="geometry" />
        </mxCell>
        <mxCell id="SZYIprdb0noJJP8OvCxE-7" value="&lt;font style=&quot;font-size: 15px&quot;&gt;Separate role for the production validation&lt;/font&gt;" style="text;html=1;strokeColor=#d79b00;fillColor=#ffe6cc;align=center;verticalAlign=middle;whiteSpace=wrap;rounded=0;" vertex="1" parent="1">
          <mxGeometry x="40" y="200" width="350" height="40" as="geometry" />
        </mxCell>
        <mxCell id="SZYIprdb0noJJP8OvCxE-8" value="" style="rounded=1;whiteSpace=wrap;html=1;" vertex="1" parent="1">
          <mxGeometry x="40" y="290" width="1090" height="510" as="geometry" />
        </mxCell>
        <mxCell id="SZYIprdb0noJJP8OvCxE-11" value="" style="outlineConnect=0;dashed=0;verticalLabelPosition=bottom;verticalAlign=top;align=center;html=1;shape=mxgraph.aws3.classic_load_balancer;fillColor=#F58536;gradientColor=none;" vertex="1" parent="1">
          <mxGeometry x="521" y="330" width="69" height="72" as="geometry" />
        </mxCell>
        <mxCell id="SZYIprdb0noJJP8OvCxE-10" value="us-east-1" style="rounded=1;whiteSpace=wrap;html=1;" vertex="1" parent="1">
          <mxGeometry x="70" y="480" width="490" height="250" as="geometry" />
        </mxCell>
        <mxCell id="SZYIprdb0noJJP8OvCxE-17" value="Role 2" style="outlineConnect=0;fontColor=#232F3E;gradientColor=none;fillColor=#C7131F;strokeColor=none;dashed=0;verticalLabelPosition=bottom;verticalAlign=top;align=center;html=1;fontSize=12;fontStyle=0;aspect=fixed;pointerEvents=1;shape=mxgraph.aws4.role;" vertex="1" parent="1">
          <mxGeometry x="135" y="510" width="78" height="44" as="geometry" />
        </mxCell>
        <mxCell id="SZYIprdb0noJJP8OvCxE-18" value="App1" style="outlineConnect=0;fontColor=#232F3E;gradientColor=none;fillColor=#D86613;strokeColor=none;dashed=0;verticalLabelPosition=bottom;verticalAlign=top;align=center;html=1;fontSize=12;fontStyle=0;aspect=fixed;pointerEvents=1;shape=mxgraph.aws4.instance2;" vertex="1" parent="1">
          <mxGeometry x="191" y="630" width="48" height="48" as="geometry" />
        </mxCell>
        <mxCell id="SZYIprdb0noJJP8OvCxE-19" value="App1" style="outlineConnect=0;fontColor=#232F3E;gradientColor=none;fillColor=#D86613;strokeColor=none;dashed=0;verticalLabelPosition=bottom;verticalAlign=top;align=center;html=1;fontSize=12;fontStyle=0;aspect=fixed;pointerEvents=1;shape=mxgraph.aws4.instance2;" vertex="1" parent="1">
          <mxGeometry x="390" y="630" width="48" height="48" as="geometry" />
        </mxCell>
        <mxCell id="SZYIprdb0noJJP8OvCxE-22" value="TRUST policy" style="verticalLabelPosition=bottom;html=1;fillColor=#A153A0;strokeColor=#ffffff;verticalAlign=top;align=center;points=[[0,0.5,0],[0.125,0.25,0],[0.25,0,0],[0.5,0,0],[0.75,0,0],[0.875,0.25,0],[1,0.5,0],[0.875,0.75,0],[0.75,1,0],[0.5,1,0],[0.125,0.75,0]];pointerEvents=1;shape=mxgraph.cisco_safe.compositeIcon;bgIcon=mxgraph.cisco_safe.design.blank_device;resIcon=mxgraph.cisco_safe.design.policy_2;" vertex="1" parent="1">
          <mxGeometry x="280" y="510" width="50" height="45" as="geometry" />
        </mxCell>
        <mxCell id="SZYIprdb0noJJP8OvCxE-23" value="ACCESS POLICY" style="verticalLabelPosition=bottom;html=1;fillColor=#A153A0;strokeColor=#ffffff;verticalAlign=top;align=center;points=[[0,0.5,0],[0.125,0.25,0],[0.25,0,0],[0.5,0,0],[0.75,0,0],[0.875,0.25,0],[1,0.5,0],[0.875,0.75,0],[0.75,1,0],[0.5,1,0],[0.125,0.75,0]];pointerEvents=1;shape=mxgraph.cisco_safe.compositeIcon;bgIcon=mxgraph.cisco_safe.design.blank_device;resIcon=mxgraph.cisco_safe.design.policy_2;" vertex="1" parent="1">
          <mxGeometry x="400" y="509" width="50" height="45" as="geometry" />
        </mxCell>
        <mxCell id="SZYIprdb0noJJP8OvCxE-9" value="" style="rounded=1;whiteSpace=wrap;html=1;" vertex="1" parent="1">
          <mxGeometry x="610" y="470" width="490" height="310" as="geometry" />
        </mxCell>
        <mxCell id="SZYIprdb0noJJP8OvCxE-12" value="App1" style="outlineConnect=0;fontColor=#232F3E;gradientColor=none;fillColor=#D86613;strokeColor=none;dashed=0;verticalLabelPosition=bottom;verticalAlign=top;align=center;html=1;fontSize=12;fontStyle=0;aspect=fixed;pointerEvents=1;shape=mxgraph.aws4.instance2;" vertex="1" parent="1">
          <mxGeometry x="660" y="650" width="48" height="48" as="geometry" />
        </mxCell>
        <mxCell id="SZYIprdb0noJJP8OvCxE-13" value="App1" style="outlineConnect=0;fontColor=#232F3E;gradientColor=none;fillColor=#D86613;strokeColor=none;dashed=0;verticalLabelPosition=bottom;verticalAlign=top;align=center;html=1;fontSize=12;fontStyle=0;aspect=fixed;pointerEvents=1;shape=mxgraph.aws4.instance2;" vertex="1" parent="1">
          <mxGeometry x="1010" y="650" width="48" height="48" as="geometry" />
        </mxCell>
        <mxCell id="SZYIprdb0noJJP8OvCxE-14" value="App1" style="outlineConnect=0;fontColor=#232F3E;gradientColor=none;fillColor=#D86613;strokeColor=none;dashed=0;verticalLabelPosition=bottom;verticalAlign=top;align=center;html=1;fontSize=12;fontStyle=0;aspect=fixed;pointerEvents=1;shape=mxgraph.aws4.instance2;" vertex="1" parent="1">
          <mxGeometry x="770" y="650" width="48" height="48" as="geometry" />
        </mxCell>
        <mxCell id="SZYIprdb0noJJP8OvCxE-15" value="App1" style="outlineConnect=0;fontColor=#232F3E;gradientColor=none;fillColor=#D86613;strokeColor=none;dashed=0;verticalLabelPosition=bottom;verticalAlign=top;align=center;html=1;fontSize=12;fontStyle=0;aspect=fixed;pointerEvents=1;shape=mxgraph.aws4.instance2;" vertex="1" parent="1">
          <mxGeometry x="890" y="650" width="48" height="48" as="geometry" />
        </mxCell>
        <mxCell id="SZYIprdb0noJJP8OvCxE-16" value="Role 1" style="outlineConnect=0;fontColor=#232F3E;gradientColor=none;fillColor=#C7131F;strokeColor=none;dashed=0;verticalLabelPosition=bottom;verticalAlign=top;align=center;html=1;fontSize=12;fontStyle=0;aspect=fixed;pointerEvents=1;shape=mxgraph.aws4.role;" vertex="1" parent="1">
          <mxGeometry x="671" y="511" width="78" height="44" as="geometry" />
        </mxCell>
        <mxCell id="SZYIprdb0noJJP8OvCxE-20" value="TRUST policy" style="verticalLabelPosition=bottom;html=1;fillColor=#A153A0;strokeColor=#ffffff;verticalAlign=top;align=center;points=[[0,0.5,0],[0.125,0.25,0],[0.25,0,0],[0.5,0,0],[0.75,0,0],[0.875,0.25,0],[1,0.5,0],[0.875,0.75,0],[0.75,1,0],[0.5,1,0],[0.125,0.75,0]];pointerEvents=1;shape=mxgraph.cisco_safe.compositeIcon;bgIcon=mxgraph.cisco_safe.design.blank_device;resIcon=mxgraph.cisco_safe.design.policy_2;" vertex="1" parent="1">
          <mxGeometry x="818" y="511" width="50" height="45" as="geometry" />
        </mxCell>
        <mxCell id="SZYIprdb0noJJP8OvCxE-21" value="ACCESS POLICY" style="verticalLabelPosition=bottom;html=1;fillColor=#A153A0;strokeColor=#ffffff;verticalAlign=top;align=center;points=[[0,0.5,0],[0.125,0.25,0],[0.25,0,0],[0.5,0,0],[0.75,0,0],[0.875,0.25,0],[1,0.5,0],[0.875,0.75,0],[0.75,1,0],[0.5,1,0],[0.125,0.75,0]];pointerEvents=1;shape=mxgraph.cisco_safe.compositeIcon;bgIcon=mxgraph.cisco_safe.design.blank_device;resIcon=mxgraph.cisco_safe.design.policy_2;" vertex="1" parent="1">
          <mxGeometry x="930" y="511" width="50" height="45" as="geometry" />
        </mxCell>
      </root>
    </mxGraphModel>
  </diagram>
  <diagram id="2nK-FZSalngX3GA0l22q" name="Distribute AWS Credentials to EC2">
    <mxGraphModel dx="1382" dy="764" grid="1" gridSize="10" guides="1" tooltips="1" connect="1" arrows="1" fold="1" page="1" pageScale="1" pageWidth="827" pageHeight="1169" math="0" shadow="0">
      <root>
        <mxCell id="ZoCaTa6T1BRPGj300-j--0" />
        <mxCell id="ZoCaTa6T1BRPGj300-j--1" parent="ZoCaTa6T1BRPGj300-j--0" />
        <mxCell id="ZoCaTa6T1BRPGj300-j--2" value="&lt;h1 class=&quot;lb-h2 blog-post-title&quot; style=&quot;box-sizing: border-box ; margin: 0px ; color: rgb(35 , 47 , 62) ; font-weight: 500 ; font-family: &amp;#34;amazonemberbold&amp;#34; , &amp;#34;helvetica neue bold&amp;#34; , &amp;#34;helvetica neue&amp;#34; , &amp;#34;helvetica&amp;#34; , &amp;#34;arial&amp;#34; , sans-serif ; font-size: 2.4rem ; line-height: 1.3&quot;&gt;Distribute AWS Credentials to EC2&lt;/h1&gt;" style="text;html=1;strokeColor=none;fillColor=none;align=center;verticalAlign=middle;whiteSpace=wrap;rounded=0;" vertex="1" parent="ZoCaTa6T1BRPGj300-j--1">
          <mxGeometry x="40" y="40" width="770" height="20" as="geometry" />
        </mxCell>
        <mxCell id="27o8By8hVNY2e-l8S0OD-0" value="" style="shape=image;verticalLabelPosition=bottom;labelBackgroundColor=#ffffff;verticalAlign=top;aspect=fixed;imageAspect=0;image=https://docs.aws.amazon.com/IAM/latest/UserGuide/images/roles-usingrole-ec2roleinstance.png;" vertex="1" parent="ZoCaTa6T1BRPGj300-j--1">
          <mxGeometry x="40" y="120" width="757.89" height="360" as="geometry" />
        </mxCell>
      </root>
    </mxGraphModel>
  </diagram>
  <diagram id="rhjH9vImBg1a3-dmJu2O" name="UseCases">
    <mxGraphModel dx="1382" dy="764" grid="1" gridSize="10" guides="1" tooltips="1" connect="1" arrows="1" fold="1" page="1" pageScale="1" pageWidth="827" pageHeight="1169" math="0" shadow="0">
      <root>
        <mxCell id="NohFFQpjYH7S3I6kau8--0" />
        <mxCell id="NohFFQpjYH7S3I6kau8--1" parent="NohFFQpjYH7S3I6kau8--0" />
        <mxCell id="NohFFQpjYH7S3I6kau8--8" style="edgeStyle=orthogonalEdgeStyle;rounded=0;orthogonalLoop=1;jettySize=auto;html=1;" edge="1" parent="NohFFQpjYH7S3I6kau8--1" source="NohFFQpjYH7S3I6kau8--24" target="NohFFQpjYH7S3I6kau8--7">
          <mxGeometry relative="1" as="geometry">
            <mxPoint x="160" y="140" as="sourcePoint" />
            <Array as="points">
              <mxPoint x="220" y="141" />
              <mxPoint x="220" y="141" />
            </Array>
          </mxGeometry>
        </mxCell>
        <mxCell id="NohFFQpjYH7S3I6kau8--6" value="App Running in EC2 instance need to access RDS" style="text;html=1;strokeColor=none;fillColor=none;align=left;verticalAlign=middle;whiteSpace=wrap;rounded=0;" vertex="1" parent="NohFFQpjYH7S3I6kau8--1">
          <mxGeometry x="40" y="40" width="330" height="20" as="geometry" />
        </mxCell>
        <mxCell id="NohFFQpjYH7S3I6kau8--7" value="" style="outlineConnect=0;dashed=0;verticalLabelPosition=bottom;verticalAlign=top;align=center;html=1;shape=mxgraph.aws3.rds;fillColor=#2E73B8;gradientColor=none;" vertex="1" parent="NohFFQpjYH7S3I6kau8--1">
          <mxGeometry x="400" y="100" width="72" height="81" as="geometry" />
        </mxCell>
        <mxCell id="NohFFQpjYH7S3I6kau8--11" value="App Running in EC2 instance need to access OnPremise Datasource" style="text;html=1;strokeColor=none;fillColor=none;align=left;verticalAlign=middle;whiteSpace=wrap;rounded=0;" vertex="1" parent="NohFFQpjYH7S3I6kau8--1">
          <mxGeometry x="40" y="235" width="400" height="20" as="geometry" />
        </mxCell>
        <mxCell id="NohFFQpjYH7S3I6kau8--13" value="" style="aspect=fixed;perimeter=ellipsePerimeter;html=1;align=center;shadow=0;dashed=0;spacingTop=3;image;image=img/lib/active_directory/database_server.svg;" vertex="1" parent="NohFFQpjYH7S3I6kau8--1">
          <mxGeometry x="414" y="283" width="90.2" height="110" as="geometry" />
        </mxCell>
        <mxCell id="NohFFQpjYH7S3I6kau8--14" style="edgeStyle=orthogonalEdgeStyle;rounded=0;orthogonalLoop=1;jettySize=auto;html=1;entryX=0;entryY=0.5;entryDx=0;entryDy=0;" edge="1" parent="NohFFQpjYH7S3I6kau8--1" source="NohFFQpjYH7S3I6kau8--26" target="NohFFQpjYH7S3I6kau8--20">
          <mxGeometry relative="1" as="geometry">
            <mxPoint x="400" y="525.5" as="targetPoint" />
            <mxPoint x="160" y="525" as="sourcePoint" />
            <Array as="points" />
          </mxGeometry>
        </mxCell>
        <mxCell id="NohFFQpjYH7S3I6kau8--16" value="App Running in EC2 instance need to access Datasource on EC2" style="text;html=1;strokeColor=none;fillColor=none;align=left;verticalAlign=middle;whiteSpace=wrap;rounded=0;" vertex="1" parent="NohFFQpjYH7S3I6kau8--1">
          <mxGeometry x="40" y="425" width="400" height="20" as="geometry" />
        </mxCell>
        <mxCell id="NohFFQpjYH7S3I6kau8--19" value="EC2 instance contents" style="points=[[0,0],[0.25,0],[0.5,0],[0.75,0],[1,0],[1,0.25],[1,0.5],[1,0.75],[1,1],[0.75,1],[0.5,1],[0.25,1],[0,1],[0,0.75],[0,0.5],[0,0.25]];outlineConnect=0;gradientColor=none;html=1;whiteSpace=wrap;fontSize=12;fontStyle=0;shape=mxgraph.aws4.group;grIcon=mxgraph.aws4.group_ec2_instance_contents;strokeColor=#D86613;fillColor=none;verticalAlign=top;align=left;spacingLeft=30;fontColor=#D86613;dashed=0;" vertex="1" parent="NohFFQpjYH7S3I6kau8--1">
          <mxGeometry x="400" y="480" width="130" height="130" as="geometry" />
        </mxCell>
        <mxCell id="NohFFQpjYH7S3I6kau8--20" value="" style="shape=datastore;whiteSpace=wrap;html=1;" vertex="1" parent="NohFFQpjYH7S3I6kau8--1">
          <mxGeometry x="435" y="525" width="60" height="60" as="geometry" />
        </mxCell>
        <mxCell id="NohFFQpjYH7S3I6kau8--21" value="EC2 instance contents" style="points=[[0,0],[0.25,0],[0.5,0],[0.75,0],[1,0],[1,0.25],[1,0.5],[1,0.75],[1,1],[0.75,1],[0.5,1],[0.25,1],[0,1],[0,0.75],[0,0.5],[0,0.25]];outlineConnect=0;gradientColor=none;html=1;whiteSpace=wrap;fontSize=12;fontStyle=0;shape=mxgraph.aws4.group;grIcon=mxgraph.aws4.group_ec2_instance_contents;strokeColor=#D86613;fillColor=none;verticalAlign=top;align=left;spacingLeft=30;fontColor=#D86613;dashed=0;" vertex="1" parent="NohFFQpjYH7S3I6kau8--1">
          <mxGeometry x="30" y="76" width="130" height="130" as="geometry" />
        </mxCell>
        <mxCell id="NohFFQpjYH7S3I6kau8--22" value="EC2 instance contents" style="points=[[0,0],[0.25,0],[0.5,0],[0.75,0],[1,0],[1,0.25],[1,0.5],[1,0.75],[1,1],[0.75,1],[0.5,1],[0.25,1],[0,1],[0,0.75],[0,0.5],[0,0.25]];outlineConnect=0;gradientColor=none;html=1;whiteSpace=wrap;fontSize=12;fontStyle=0;shape=mxgraph.aws4.group;grIcon=mxgraph.aws4.group_ec2_instance_contents;strokeColor=#D86613;fillColor=none;verticalAlign=top;align=left;spacingLeft=30;fontColor=#D86613;dashed=0;" vertex="1" parent="NohFFQpjYH7S3I6kau8--1">
          <mxGeometry x="30" y="265" width="130" height="130" as="geometry" />
        </mxCell>
        <mxCell id="NohFFQpjYH7S3I6kau8--23" value="EC2 instance contents" style="points=[[0,0],[0.25,0],[0.5,0],[0.75,0],[1,0],[1,0.25],[1,0.5],[1,0.75],[1,1],[0.75,1],[0.5,1],[0.25,1],[0,1],[0,0.75],[0,0.5],[0,0.25]];outlineConnect=0;gradientColor=none;html=1;whiteSpace=wrap;fontSize=12;fontStyle=0;shape=mxgraph.aws4.group;grIcon=mxgraph.aws4.group_ec2_instance_contents;strokeColor=#D86613;fillColor=none;verticalAlign=top;align=left;spacingLeft=30;fontColor=#D86613;dashed=0;" vertex="1" parent="NohFFQpjYH7S3I6kau8--1">
          <mxGeometry x="30" y="480" width="130" height="130" as="geometry" />
        </mxCell>
        <mxCell id="NohFFQpjYH7S3I6kau8--24" value="" style="pointerEvents=1;shadow=0;dashed=0;html=1;strokeColor=none;fillColor=#505050;labelPosition=center;verticalLabelPosition=bottom;verticalAlign=top;outlineConnect=0;align=center;shape=mxgraph.office.servers.server_side_code;" vertex="1" parent="NohFFQpjYH7S3I6kau8--1">
          <mxGeometry x="60" y="112.5" width="49" height="56" as="geometry" />
        </mxCell>
        <mxCell id="NohFFQpjYH7S3I6kau8--27" style="edgeStyle=orthogonalEdgeStyle;rounded=0;orthogonalLoop=1;jettySize=auto;html=1;" edge="1" parent="NohFFQpjYH7S3I6kau8--1" source="NohFFQpjYH7S3I6kau8--25" target="NohFFQpjYH7S3I6kau8--13">
          <mxGeometry relative="1" as="geometry" />
        </mxCell>
        <mxCell id="NohFFQpjYH7S3I6kau8--25" value="" style="pointerEvents=1;shadow=0;dashed=0;html=1;strokeColor=none;fillColor=#505050;labelPosition=center;verticalLabelPosition=bottom;verticalAlign=top;outlineConnect=0;align=center;shape=mxgraph.office.servers.server_side_code;" vertex="1" parent="NohFFQpjYH7S3I6kau8--1">
          <mxGeometry x="70.5" y="310" width="49" height="56" as="geometry" />
        </mxCell>
        <mxCell id="NohFFQpjYH7S3I6kau8--26" value="" style="pointerEvents=1;shadow=0;dashed=0;html=1;strokeColor=none;fillColor=#505050;labelPosition=center;verticalLabelPosition=bottom;verticalAlign=top;outlineConnect=0;align=center;shape=mxgraph.office.servers.server_side_code;" vertex="1" parent="NohFFQpjYH7S3I6kau8--1">
          <mxGeometry x="70.5" y="527" width="49" height="56" as="geometry" />
        </mxCell>
        <mxCell id="NohFFQpjYH7S3I6kau8--28" style="edgeStyle=orthogonalEdgeStyle;rounded=0;orthogonalLoop=1;jettySize=auto;html=1;entryX=0;entryY=0.5;entryDx=0;entryDy=0;" edge="1" parent="NohFFQpjYH7S3I6kau8--1" source="NohFFQpjYH7S3I6kau8--33">
          <mxGeometry relative="1" as="geometry">
            <mxPoint x="435" y="780" as="targetPoint" />
            <mxPoint x="160" y="750" as="sourcePoint" />
            <Array as="points" />
          </mxGeometry>
        </mxCell>
        <mxCell id="NohFFQpjYH7S3I6kau8--29" value="App Running in EC2 instance need to access App on EC2" style="text;html=1;strokeColor=none;fillColor=none;align=left;verticalAlign=middle;whiteSpace=wrap;rounded=0;" vertex="1" parent="NohFFQpjYH7S3I6kau8--1">
          <mxGeometry x="40" y="650" width="400" height="20" as="geometry" />
        </mxCell>
        <mxCell id="NohFFQpjYH7S3I6kau8--30" value="EC2 instance contents" style="points=[[0,0],[0.25,0],[0.5,0],[0.75,0],[1,0],[1,0.25],[1,0.5],[1,0.75],[1,1],[0.75,1],[0.5,1],[0.25,1],[0,1],[0,0.75],[0,0.5],[0,0.25]];outlineConnect=0;gradientColor=none;html=1;whiteSpace=wrap;fontSize=12;fontStyle=0;shape=mxgraph.aws4.group;grIcon=mxgraph.aws4.group_ec2_instance_contents;strokeColor=#D86613;fillColor=none;verticalAlign=top;align=left;spacingLeft=30;fontColor=#D86613;dashed=0;" vertex="1" parent="NohFFQpjYH7S3I6kau8--1">
          <mxGeometry x="400" y="705" width="130" height="130" as="geometry" />
        </mxCell>
        <mxCell id="NohFFQpjYH7S3I6kau8--32" value="EC2 instance contents" style="points=[[0,0],[0.25,0],[0.5,0],[0.75,0],[1,0],[1,0.25],[1,0.5],[1,0.75],[1,1],[0.75,1],[0.5,1],[0.25,1],[0,1],[0,0.75],[0,0.5],[0,0.25]];outlineConnect=0;gradientColor=none;html=1;whiteSpace=wrap;fontSize=12;fontStyle=0;shape=mxgraph.aws4.group;grIcon=mxgraph.aws4.group_ec2_instance_contents;strokeColor=#D86613;fillColor=none;verticalAlign=top;align=left;spacingLeft=30;fontColor=#D86613;dashed=0;" vertex="1" parent="NohFFQpjYH7S3I6kau8--1">
          <mxGeometry x="30" y="705" width="130" height="130" as="geometry" />
        </mxCell>
        <mxCell id="NohFFQpjYH7S3I6kau8--33" value="" style="pointerEvents=1;shadow=0;dashed=0;html=1;strokeColor=none;fillColor=#505050;labelPosition=center;verticalLabelPosition=bottom;verticalAlign=top;outlineConnect=0;align=center;shape=mxgraph.office.servers.server_side_code;" vertex="1" parent="NohFFQpjYH7S3I6kau8--1">
          <mxGeometry x="70.5" y="752" width="49" height="56" as="geometry" />
        </mxCell>
        <mxCell id="NohFFQpjYH7S3I6kau8--34" value="" style="pointerEvents=1;shadow=0;dashed=0;html=1;strokeColor=none;fillColor=#505050;labelPosition=center;verticalLabelPosition=bottom;verticalAlign=top;outlineConnect=0;align=center;shape=mxgraph.office.servers.server_side_code;" vertex="1" parent="NohFFQpjYH7S3I6kau8--1">
          <mxGeometry x="434.6" y="752" width="49" height="56" as="geometry" />
        </mxCell>
        <mxCell id="NohFFQpjYH7S3I6kau8--35" style="edgeStyle=orthogonalEdgeStyle;rounded=0;orthogonalLoop=1;jettySize=auto;html=1;" edge="1" parent="NohFFQpjYH7S3I6kau8--1" source="NohFFQpjYH7S3I6kau8--39">
          <mxGeometry relative="1" as="geometry">
            <mxPoint x="160" y="970" as="sourcePoint" />
            <Array as="points">
              <mxPoint x="220" y="971" />
              <mxPoint x="220" y="971" />
            </Array>
            <mxPoint x="400" y="970.5" as="targetPoint" />
          </mxGeometry>
        </mxCell>
        <mxCell id="NohFFQpjYH7S3I6kau8--36" value="App Running in EC2 instance need to access DynamoDb" style="text;html=1;strokeColor=none;fillColor=none;align=left;verticalAlign=middle;whiteSpace=wrap;rounded=0;" vertex="1" parent="NohFFQpjYH7S3I6kau8--1">
          <mxGeometry x="40" y="870" width="330" height="20" as="geometry" />
        </mxCell>
        <mxCell id="NohFFQpjYH7S3I6kau8--38" value="EC2 instance contents" style="points=[[0,0],[0.25,0],[0.5,0],[0.75,0],[1,0],[1,0.25],[1,0.5],[1,0.75],[1,1],[0.75,1],[0.5,1],[0.25,1],[0,1],[0,0.75],[0,0.5],[0,0.25]];outlineConnect=0;gradientColor=none;html=1;whiteSpace=wrap;fontSize=12;fontStyle=0;shape=mxgraph.aws4.group;grIcon=mxgraph.aws4.group_ec2_instance_contents;strokeColor=#D86613;fillColor=none;verticalAlign=top;align=left;spacingLeft=30;fontColor=#D86613;dashed=0;" vertex="1" parent="NohFFQpjYH7S3I6kau8--1">
          <mxGeometry x="30" y="906" width="130" height="130" as="geometry" />
        </mxCell>
        <mxCell id="NohFFQpjYH7S3I6kau8--39" value="" style="pointerEvents=1;shadow=0;dashed=0;html=1;strokeColor=none;fillColor=#505050;labelPosition=center;verticalLabelPosition=bottom;verticalAlign=top;outlineConnect=0;align=center;shape=mxgraph.office.servers.server_side_code;" vertex="1" parent="NohFFQpjYH7S3I6kau8--1">
          <mxGeometry x="60" y="942.5" width="49" height="56" as="geometry" />
        </mxCell>
        <mxCell id="NohFFQpjYH7S3I6kau8--41" value="Amazon DynamoDB" style="outlineConnect=0;fontColor=#232F3E;gradientColor=none;strokeColor=#ffffff;fillColor=#232F3E;dashed=0;verticalLabelPosition=middle;verticalAlign=bottom;align=center;html=1;whiteSpace=wrap;fontSize=10;fontStyle=1;spacing=3;shape=mxgraph.aws4.productIcon;prIcon=mxgraph.aws4.dynamodb;" vertex="1" parent="NohFFQpjYH7S3I6kau8--1">
          <mxGeometry x="404" y="916" width="80" height="110" as="geometry" />
        </mxCell>
        <mxCell id="i1F6xCjo4NIYE3MPSxTi-0" value="" style="shape=image;verticalLabelPosition=bottom;labelBackgroundColor=#ffffff;verticalAlign=top;aspect=fixed;imageAspect=0;image=https://docs.aws.amazon.com/IAM/latest/UserGuide/images/roles-instance-profile-cross-account.png;" vertex="1" parent="NohFFQpjYH7S3I6kau8--1">
          <mxGeometry x="40" y="1120" width="458" height="323" as="geometry" />
        </mxCell>
        <UserObject label="https://aws.amazon.com/premiumsupport/knowledge-center/users-connect-rds-iam/" link="https://aws.amazon.com/premiumsupport/knowledge-center/users-connect-rds-iam/" id="i1F6xCjo4NIYE3MPSxTi-1">
          <mxCell style="text;whiteSpace=wrap;html=1;" vertex="1" parent="NohFFQpjYH7S3I6kau8--1">
            <mxGeometry x="520" y="126" width="470" height="30" as="geometry" />
          </mxCell>
        </UserObject>
      </root>
    </mxGraphModel>
  </diagram>
  <diagram id="-TouCNWqxJQOEcBZHPFR" name="ArchitectureDiagrams">
    <mxGraphModel dx="1382" dy="764" grid="1" gridSize="10" guides="1" tooltips="1" connect="1" arrows="1" fold="1" page="1" pageScale="1" pageWidth="827" pageHeight="1169" math="0" shadow="0">
      <root>
        <mxCell id="-TxU8lw2uANwHTsADHV5-0" />
        <mxCell id="-TxU8lw2uANwHTsADHV5-1" parent="-TxU8lw2uANwHTsADHV5-0" />
        <mxCell id="-TxU8lw2uANwHTsADHV5-2" value="&lt;ul class=&quot;&quot; style=&quot;box-sizing: inherit; margin: 0px; padding: 0px; list-style: none none; color: rgba(0, 0, 0, 0.8); font-size: medium; font-style: normal; font-weight: 400; letter-spacing: normal; text-indent: 0px; text-transform: none; word-spacing: 0px; background-color: rgb(255, 255, 255);&quot;&gt;&lt;li id=&quot;a185&quot; class=&quot;ie if ds ig b eq ih ii ij et ik il im in io ip iq ir is it iu iv iw ix iy iz jj jb jc cg&quot; style=&quot;box-sizing: inherit ; font-weight: 400 ; color: rgb(41 , 41 , 41) ; font-style: normal ; line-height: 32px ; letter-spacing: -0.003em ; font-family: &amp;quot;charter&amp;quot; , &amp;quot;georgia&amp;quot; , &amp;quot;cambria&amp;quot; , &amp;quot;times new roman&amp;quot; , &amp;quot;times&amp;quot; , serif ; margin-bottom: -0.46em ; margin-left: 30px ; padding-left: 0px ; list-style-type: disc ; font-size: 21px ; margin-top: 2em&quot;&gt;&lt;strong class=&quot;ig jd&quot; style=&quot;box-sizing: inherit ; font-family: &amp;quot;charter&amp;quot; , &amp;quot;georgia&amp;quot; , &amp;quot;cambria&amp;quot; , &amp;quot;times new roman&amp;quot; , &amp;quot;times&amp;quot; , serif ; font-weight: 700&quot;&gt;Application Architecture Diagram&lt;/strong&gt;&lt;/li&gt;&lt;li id=&quot;6455&quot; class=&quot;ie if ds ig b eq je ii ij et jf il im in jg ip iq ir jh it iu iv ji ix iy iz jj jb jc cg&quot; style=&quot;box-sizing: inherit ; font-weight: 400 ; color: rgb(41 , 41 , 41) ; font-style: normal ; line-height: 32px ; letter-spacing: -0.003em ; font-family: &amp;quot;charter&amp;quot; , &amp;quot;georgia&amp;quot; , &amp;quot;cambria&amp;quot; , &amp;quot;times new roman&amp;quot; , &amp;quot;times&amp;quot; , serif ; margin-bottom: -0.46em ; margin-left: 30px ; padding-left: 0px ; list-style-type: disc ; font-size: 21px ; margin-top: 1.05em&quot;&gt;&lt;strong class=&quot;ig jd&quot; style=&quot;box-sizing: inherit ; font-family: &amp;quot;charter&amp;quot; , &amp;quot;georgia&amp;quot; , &amp;quot;cambria&amp;quot; , &amp;quot;times new roman&amp;quot; , &amp;quot;times&amp;quot; , serif ; font-weight: 700&quot;&gt;Integration Architecture Diagram&lt;/strong&gt;&lt;/li&gt;&lt;li id=&quot;efd7&quot; class=&quot;ie if ds ig b eq je ii ij et jf il im in jg ip iq ir jh it iu iv ji ix iy iz jj jb jc cg&quot; style=&quot;box-sizing: inherit ; font-weight: 400 ; color: rgb(41 , 41 , 41) ; font-style: normal ; line-height: 32px ; letter-spacing: -0.003em ; font-family: &amp;quot;charter&amp;quot; , &amp;quot;georgia&amp;quot; , &amp;quot;cambria&amp;quot; , &amp;quot;times new roman&amp;quot; , &amp;quot;times&amp;quot; , serif ; margin-bottom: -0.46em ; margin-left: 30px ; padding-left: 0px ; list-style-type: disc ; font-size: 21px ; margin-top: 1.05em&quot;&gt;&lt;strong class=&quot;ig jd&quot; style=&quot;box-sizing: inherit ; font-family: &amp;quot;charter&amp;quot; , &amp;quot;georgia&amp;quot; , &amp;quot;cambria&amp;quot; , &amp;quot;times new roman&amp;quot; , &amp;quot;times&amp;quot; , serif ; font-weight: 700&quot;&gt;Deployment Architecture Diagram&lt;/strong&gt;&lt;/li&gt;&lt;li id=&quot;7dfb&quot; class=&quot;ie if ds ig b eq je ii ij et jf il im in jg ip iq ir jh it iu iv ji ix iy iz jj jb jc cg&quot; style=&quot;box-sizing: inherit ; font-weight: 400 ; color: rgb(41 , 41 , 41) ; font-style: normal ; line-height: 32px ; letter-spacing: -0.003em ; font-family: &amp;quot;charter&amp;quot; , &amp;quot;georgia&amp;quot; , &amp;quot;cambria&amp;quot; , &amp;quot;times new roman&amp;quot; , &amp;quot;times&amp;quot; , serif ; margin-bottom: -0.46em ; margin-left: 30px ; padding-left: 0px ; list-style-type: disc ; font-size: 21px ; margin-top: 1.05em&quot;&gt;&lt;strong class=&quot;ig jd&quot; style=&quot;box-sizing: inherit ; font-family: &amp;quot;charter&amp;quot; , &amp;quot;georgia&amp;quot; , &amp;quot;cambria&amp;quot; , &amp;quot;times new roman&amp;quot; , &amp;quot;times&amp;quot; , serif ; font-weight: 700&quot;&gt;DevOps Architecture Diagram&lt;/strong&gt;&lt;/li&gt;&lt;li id=&quot;287e&quot; class=&quot;ie if ds ig b eq je ii ij et jf il im in jg ip iq ir jh it iu iv ji ix iy iz jj jb jc cg&quot; style=&quot;box-sizing: inherit ; font-weight: 400 ; color: rgb(41 , 41 , 41) ; font-style: normal ; line-height: 32px ; letter-spacing: -0.003em ; font-family: &amp;quot;charter&amp;quot; , &amp;quot;georgia&amp;quot; , &amp;quot;cambria&amp;quot; , &amp;quot;times new roman&amp;quot; , &amp;quot;times&amp;quot; , serif ; margin-bottom: -0.46em ; margin-left: 30px ; padding-left: 0px ; list-style-type: disc ; font-size: 21px ; margin-top: 1.05em&quot;&gt;&lt;strong class=&quot;ig jd&quot; style=&quot;box-sizing: inherit ; font-family: &amp;quot;charter&amp;quot; , &amp;quot;georgia&amp;quot; , &amp;quot;cambria&amp;quot; , &amp;quot;times new roman&amp;quot; , &amp;quot;times&amp;quot; , serif ; font-weight: 700&quot;&gt;Data Architecture Diagram&lt;/strong&gt;&lt;/li&gt;&lt;/ul&gt;" style="text;whiteSpace=wrap;html=1;" vertex="1" parent="-TxU8lw2uANwHTsADHV5-1">
          <mxGeometry x="60" y="50" width="430" height="260" as="geometry" />
        </mxCell>
        <UserObject label="https://medium.com/the-internal-startup/how-to-draw-useful-technical-architecture-diagrams-2d20c9fda90d" link="https://medium.com/the-internal-startup/how-to-draw-useful-technical-architecture-diagrams-2d20c9fda90d" id="-TxU8lw2uANwHTsADHV5-3">
          <mxCell style="text;whiteSpace=wrap;html=1;" vertex="1" parent="-TxU8lw2uANwHTsADHV5-1">
            <mxGeometry x="40" y="40" width="590" height="40" as="geometry" />
          </mxCell>
        </UserObject>
        <mxCell id="IpwyttC38P4O72803I_h-0" value="There are three common patterns that we observe when our customers build&lt;br/&gt;microservices: API driven, event driven, and data streaming." style="text;html=1;align=center;verticalAlign=middle;resizable=0;points=[];autosize=1;strokeColor=none;" vertex="1" parent="-TxU8lw2uANwHTsADHV5-1">
          <mxGeometry x="40" y="400" width="420" height="30" as="geometry" />
        </mxCell>
        <mxCell id="IpwyttC38P4O72803I_h-2" value="Serverless is defined as an operational model by the following tenets:&#xa;• No infrastructure to provision or manage&#xa;• Automatically scaling by unit of consumption&#xa;• “Pay for value” billing model&#xa;• Built-in availability and fault tolerance" style="text;whiteSpace=wrap;html=1;" vertex="1" parent="-TxU8lw2uANwHTsADHV5-1">
          <mxGeometry x="50" y="460" width="390" height="90" as="geometry" />
        </mxCell>
      </root>
    </mxGraphModel>
  </diagram>
  <diagram id="CtvAnEcikaLKlM-po1jI" name="CI/CD">
    <mxGraphModel dx="1382" dy="764" grid="1" gridSize="10" guides="1" tooltips="1" connect="1" arrows="1" fold="1" page="1" pageScale="1" pageWidth="827" pageHeight="1169" math="0" shadow="0">
      <root>
        <mxCell id="n11_B9VXkyJouuxj5YQA-0" />
        <mxCell id="n11_B9VXkyJouuxj5YQA-1" parent="n11_B9VXkyJouuxj5YQA-0" />
        <UserObject label="https://docs.aws.amazon.com/codepipeline/latest/userguide/codepipeline-user.pdf#concepts-continuous-delivery-integration" link="https://docs.aws.amazon.com/codepipeline/latest/userguide/codepipeline-user.pdf#concepts-continuous-delivery-integration" id="n11_B9VXkyJouuxj5YQA-2">
          <mxCell style="text;whiteSpace=wrap;html=1;" vertex="1" parent="n11_B9VXkyJouuxj5YQA-1">
            <mxGeometry x="60" y="50" width="730" height="40" as="geometry" />
          </mxCell>
        </UserObject>
      </root>
    </mxGraphModel>
  </diagram>
  <diagram id="SnAQLvZmyDOyuaUXpVl6" name="Page-6">
    <mxGraphModel dx="1616" dy="899" grid="1" gridSize="10" guides="1" tooltips="1" connect="1" arrows="1" fold="1" page="1" pageScale="1" pageWidth="827" pageHeight="1169" math="0" shadow="0">
      <root>
        <mxCell id="Gay3dvUYhFVjylemArmb-0" />
        <mxCell id="Gay3dvUYhFVjylemArmb-1" parent="Gay3dvUYhFVjylemArmb-0" />
        <mxCell id="Gay3dvUYhFVjylemArmb-2" value="User Interface" style="rounded=0;whiteSpace=wrap;html=1;align=center;horizontal=1;verticalAlign=top;dashed=1;" vertex="1" parent="Gay3dvUYhFVjylemArmb-1">
          <mxGeometry x="80" y="120" width="200" height="760" as="geometry" />
        </mxCell>
        <mxCell id="Gay3dvUYhFVjylemArmb-3" value="Microservices" style="rounded=0;whiteSpace=wrap;html=1;align=center;horizontal=1;verticalAlign=top;dashed=1;" vertex="1" parent="Gay3dvUYhFVjylemArmb-1">
          <mxGeometry x="320" y="120" width="360" height="760" as="geometry" />
        </mxCell>
        <mxCell id="Gay3dvUYhFVjylemArmb-4" value="Data Store" style="rounded=0;whiteSpace=wrap;html=1;align=center;horizontal=1;verticalAlign=top;dashed=1;" vertex="1" parent="Gay3dvUYhFVjylemArmb-1">
          <mxGeometry x="720" y="120" width="240" height="760" as="geometry" />
        </mxCell>
        <mxCell id="Gay3dvUYhFVjylemArmb-6" value="Amazon S3" style="points=[[0,0,0],[0.25,0,0],[0.5,0,0],[0.75,0,0],[1,0,0],[0,1,0],[0.25,1,0],[0.5,1,0],[0.75,1,0],[1,1,0],[0,0.25,0],[0,0.5,0],[0,0.75,0],[1,0.25,0],[1,0.5,0],[1,0.75,0]];outlineConnect=0;fontColor=#232F3E;gradientColor=#60A337;gradientDirection=north;fillColor=#277116;strokeColor=#ffffff;dashed=0;verticalLabelPosition=bottom;verticalAlign=top;align=center;html=1;fontSize=12;fontStyle=0;aspect=fixed;shape=mxgraph.aws4.resourceIcon;resIcon=mxgraph.aws4.s3;" vertex="1" parent="Gay3dvUYhFVjylemArmb-1">
          <mxGeometry x="141" y="650" width="78" height="78" as="geometry" />
        </mxCell>
        <mxCell id="Gay3dvUYhFVjylemArmb-9" style="edgeStyle=orthogonalEdgeStyle;rounded=0;orthogonalLoop=1;jettySize=auto;html=1;entryX=0.5;entryY=0;entryDx=0;entryDy=0;entryPerimeter=0;" edge="1" parent="Gay3dvUYhFVjylemArmb-1" target="Gay3dvUYhFVjylemArmb-6">
          <mxGeometry x="80" y="40" as="geometry">
            <mxPoint x="180" y="580" as="sourcePoint" />
          </mxGeometry>
        </mxCell>
        <mxCell id="Gay3dvUYhFVjylemArmb-7" value="CloudFront" style="points=[[0,0,0],[0.25,0,0],[0.5,0,0],[0.75,0,0],[1,0,0],[0,1,0],[0.25,1,0],[0.5,1,0],[0.75,1,0],[1,1,0],[0,0.25,0],[0,0.5,0],[0,0.75,0],[1,0.25,0],[1,0.5,0],[1,0.75,0]];outlineConnect=0;fontColor=#232F3E;gradientColor=#945DF2;gradientDirection=north;fillColor=#5A30B5;strokeColor=#ffffff;dashed=0;verticalLabelPosition=bottom;verticalAlign=top;align=center;html=1;fontSize=12;fontStyle=0;aspect=fixed;shape=mxgraph.aws4.resourceIcon;resIcon=mxgraph.aws4.cloudfront;" vertex="1" parent="Gay3dvUYhFVjylemArmb-1">
          <mxGeometry x="141" y="471" width="78" height="78" as="geometry" />
        </mxCell>
        <mxCell id="Gay3dvUYhFVjylemArmb-8" value="ALB" style="points=[[0,0,0],[0.25,0,0],[0.5,0,0],[0.75,0,0],[1,0,0],[0,1,0],[0.25,1,0],[0.5,1,0],[0.75,1,0],[1,1,0],[0,0.25,0],[0,0.5,0],[0,0.75,0],[1,0.25,0],[1,0.5,0],[1,0.75,0]];outlineConnect=0;fontColor=#232F3E;gradientColor=#F78E04;gradientDirection=north;fillColor=#D05C17;strokeColor=#ffffff;dashed=0;verticalLabelPosition=bottom;verticalAlign=top;align=center;html=1;fontSize=12;fontStyle=0;aspect=fixed;shape=mxgraph.aws4.resourceIcon;resIcon=mxgraph.aws4.elastic_load_balancing;" vertex="1" parent="Gay3dvUYhFVjylemArmb-1">
          <mxGeometry x="370" y="471" width="78" height="78" as="geometry" />
        </mxCell>
        <mxCell id="Gay3dvUYhFVjylemArmb-10" style="edgeStyle=orthogonalEdgeStyle;rounded=0;orthogonalLoop=1;jettySize=auto;html=1;entryX=0;entryY=0.5;entryDx=0;entryDy=0;entryPerimeter=0;" edge="1" parent="Gay3dvUYhFVjylemArmb-1" source="Gay3dvUYhFVjylemArmb-7" target="Gay3dvUYhFVjylemArmb-8">
          <mxGeometry x="80" y="40" as="geometry" />
        </mxCell>
        <mxCell id="Gay3dvUYhFVjylemArmb-11" value="ECS" style="points=[[0,0,0],[0.25,0,0],[0.5,0,0],[0.75,0,0],[1,0,0],[0,1,0],[0.25,1,0],[0.5,1,0],[0.75,1,0],[1,1,0],[0,0.25,0],[0,0.5,0],[0,0.75,0],[1,0.25,0],[1,0.5,0],[1,0.75,0]];outlineConnect=0;fontColor=#232F3E;gradientColor=#F78E04;gradientDirection=north;fillColor=#D05C17;strokeColor=#ffffff;dashed=0;verticalLabelPosition=bottom;verticalAlign=top;align=center;html=1;fontSize=12;fontStyle=0;aspect=fixed;shape=mxgraph.aws4.resourceIcon;resIcon=mxgraph.aws4.ecs;" vertex="1" parent="Gay3dvUYhFVjylemArmb-1">
          <mxGeometry x="540" y="471" width="78" height="78" as="geometry" />
        </mxCell>
        <mxCell id="Gay3dvUYhFVjylemArmb-12" style="edgeStyle=orthogonalEdgeStyle;rounded=0;orthogonalLoop=1;jettySize=auto;html=1;" edge="1" parent="Gay3dvUYhFVjylemArmb-1" source="Gay3dvUYhFVjylemArmb-8" target="Gay3dvUYhFVjylemArmb-11">
          <mxGeometry x="80" y="40" as="geometry" />
        </mxCell>
        <mxCell id="Gay3dvUYhFVjylemArmb-13" value="ElastiCache" style="points=[[0,0,0],[0.25,0,0],[0.5,0,0],[0.75,0,0],[1,0,0],[0,1,0],[0.25,1,0],[0.5,1,0],[0.75,1,0],[1,1,0],[0,0.25,0],[0,0.5,0],[0,0.75,0],[1,0.25,0],[1,0.5,0],[1,0.75,0]];outlineConnect=0;fontColor=#232F3E;gradientColor=#4D72F3;gradientDirection=north;fillColor=#3334B9;strokeColor=#ffffff;dashed=0;verticalLabelPosition=bottom;verticalAlign=top;align=center;html=1;fontSize=12;fontStyle=0;aspect=fixed;shape=mxgraph.aws4.resourceIcon;resIcon=mxgraph.aws4.elasticache;" vertex="1" parent="Gay3dvUYhFVjylemArmb-1">
          <mxGeometry x="800" y="280" width="78" height="78" as="geometry" />
        </mxCell>
        <mxCell id="Gay3dvUYhFVjylemArmb-17" style="edgeStyle=none;rounded=0;orthogonalLoop=1;jettySize=auto;html=1;entryX=0;entryY=0.5;entryDx=0;entryDy=0;entryPerimeter=0;" edge="1" parent="Gay3dvUYhFVjylemArmb-1" source="Gay3dvUYhFVjylemArmb-11" target="Gay3dvUYhFVjylemArmb-13">
          <mxGeometry x="80" y="40" as="geometry" />
        </mxCell>
        <mxCell id="Gay3dvUYhFVjylemArmb-15" value="RDS" style="points=[[0,0,0],[0.25,0,0],[0.5,0,0],[0.75,0,0],[1,0,0],[0,1,0],[0.25,1,0],[0.5,1,0],[0.75,1,0],[1,1,0],[0,0.25,0],[0,0.5,0],[0,0.75,0],[1,0.25,0],[1,0.5,0],[1,0.75,0]];outlineConnect=0;fontColor=#232F3E;gradientColor=#4D72F3;gradientDirection=north;fillColor=#3334B9;strokeColor=#ffffff;dashed=0;verticalLabelPosition=bottom;verticalAlign=top;align=center;html=1;fontSize=12;fontStyle=0;aspect=fixed;shape=mxgraph.aws4.resourceIcon;resIcon=mxgraph.aws4.aurora;" vertex="1" parent="Gay3dvUYhFVjylemArmb-1">
          <mxGeometry x="801" y="471" width="78" height="78" as="geometry" />
        </mxCell>
        <mxCell id="Gay3dvUYhFVjylemArmb-18" style="edgeStyle=none;rounded=0;orthogonalLoop=1;jettySize=auto;html=1;" edge="1" parent="Gay3dvUYhFVjylemArmb-1" source="Gay3dvUYhFVjylemArmb-11" target="Gay3dvUYhFVjylemArmb-15">
          <mxGeometry x="80" y="40" as="geometry" />
        </mxCell>
        <mxCell id="Gay3dvUYhFVjylemArmb-16" value="DynamoDB" style="points=[[0,0,0],[0.25,0,0],[0.5,0,0],[0.75,0,0],[1,0,0],[0,1,0],[0.25,1,0],[0.5,1,0],[0.75,1,0],[1,1,0],[0,0.25,0],[0,0.5,0],[0,0.75,0],[1,0.25,0],[1,0.5,0],[1,0.75,0]];outlineConnect=0;fontColor=#232F3E;gradientColor=#4D72F3;gradientDirection=north;fillColor=#3334B9;strokeColor=#ffffff;dashed=0;verticalLabelPosition=bottom;verticalAlign=top;align=center;html=1;fontSize=12;fontStyle=0;aspect=fixed;shape=mxgraph.aws4.resourceIcon;resIcon=mxgraph.aws4.dynamodb;" vertex="1" parent="Gay3dvUYhFVjylemArmb-1">
          <mxGeometry x="800" y="650" width="78" height="78" as="geometry" />
        </mxCell>
        <mxCell id="Gay3dvUYhFVjylemArmb-19" style="edgeStyle=none;rounded=0;orthogonalLoop=1;jettySize=auto;html=1;entryX=0;entryY=0.5;entryDx=0;entryDy=0;entryPerimeter=0;" edge="1" parent="Gay3dvUYhFVjylemArmb-1" source="Gay3dvUYhFVjylemArmb-11" target="Gay3dvUYhFVjylemArmb-16">
          <mxGeometry x="80" y="40" as="geometry" />
        </mxCell>
        <mxCell id="Gay3dvUYhFVjylemArmb-20" value="&lt;font style=&quot;font-size: 21px&quot;&gt;Typical microservices application on AWS&lt;/font&gt;" style="text;whiteSpace=wrap;html=1;" vertex="1" parent="Gay3dvUYhFVjylemArmb-1">
          <mxGeometry x="80" y="40" width="880" height="30" as="geometry" />
        </mxCell>
        <mxCell id="Gay3dvUYhFVjylemArmb-26" value="&lt;font style=&quot;font-size: 26px&quot;&gt;API Gateway call flow&lt;/font&gt;" style="text;whiteSpace=wrap;html=1;" vertex="1" parent="Gay3dvUYhFVjylemArmb-1">
          <mxGeometry x="80" y="940" width="520" height="30" as="geometry" />
        </mxCell>
        <mxCell id="Gay3dvUYhFVjylemArmb-28" value="AWS Cloud" style="points=[[0,0],[0.25,0],[0.5,0],[0.75,0],[1,0],[1,0.25],[1,0.5],[1,0.75],[1,1],[0.75,1],[0.5,1],[0.25,1],[0,1],[0,0.75],[0,0.5],[0,0.25]];outlineConnect=0;gradientColor=none;html=1;whiteSpace=wrap;fontSize=12;fontStyle=0;shape=mxgraph.aws4.group;grIcon=mxgraph.aws4.group_aws_cloud_alt;strokeColor=#232F3E;fillColor=none;verticalAlign=top;align=left;spacingLeft=30;fontColor=#232F3E;dashed=0;" vertex="1" parent="Gay3dvUYhFVjylemArmb-1">
          <mxGeometry x="361" y="1000" width="880" height="720" as="geometry" />
        </mxCell>
        <mxCell id="Gay3dvUYhFVjylemArmb-35" style="edgeStyle=none;rounded=0;orthogonalLoop=1;jettySize=auto;html=1;" edge="1" parent="Gay3dvUYhFVjylemArmb-1" source="Gay3dvUYhFVjylemArmb-30" target="Gay3dvUYhFVjylemArmb-33">
          <mxGeometry relative="1" as="geometry" />
        </mxCell>
        <mxCell id="Gay3dvUYhFVjylemArmb-30" value="Mobile Client" style="outlineConnect=0;dashed=0;verticalLabelPosition=bottom;verticalAlign=top;align=center;html=1;shape=mxgraph.aws3.mobile_client;fillColor=#D2D3D3;gradientColor=none;" vertex="1" parent="Gay3dvUYhFVjylemArmb-1">
          <mxGeometry x="40" y="1106" width="40.5" height="63" as="geometry" />
        </mxCell>
        <mxCell id="Gay3dvUYhFVjylemArmb-34" style="edgeStyle=none;rounded=0;orthogonalLoop=1;jettySize=auto;html=1;" edge="1" parent="Gay3dvUYhFVjylemArmb-1" source="Gay3dvUYhFVjylemArmb-31" target="Gay3dvUYhFVjylemArmb-33">
          <mxGeometry relative="1" as="geometry" />
        </mxCell>
        <mxCell id="Gay3dvUYhFVjylemArmb-31" value="Website" style="shape=image;html=1;verticalAlign=top;verticalLabelPosition=bottom;labelBackgroundColor=#ffffff;imageAspect=0;aspect=fixed;image=https://cdn4.iconfinder.com/data/icons/internet-security-flat-2/32/Internet_Security_Browser_webpage_website_web_page-128.png;dashed=1;" vertex="1" parent="Gay3dvUYhFVjylemArmb-1">
          <mxGeometry x="24.75" y="1324.5" width="71" height="71" as="geometry" />
        </mxCell>
        <mxCell id="Gay3dvUYhFVjylemArmb-36" style="edgeStyle=none;rounded=0;orthogonalLoop=1;jettySize=auto;html=1;entryX=0.07;entryY=0.93;entryDx=0;entryDy=0;entryPerimeter=0;" edge="1" parent="Gay3dvUYhFVjylemArmb-1" source="Gay3dvUYhFVjylemArmb-32" target="Gay3dvUYhFVjylemArmb-33">
          <mxGeometry relative="1" as="geometry" />
        </mxCell>
        <mxCell id="Gay3dvUYhFVjylemArmb-32" value="Partner Services" style="outlineConnect=0;dashed=0;verticalLabelPosition=bottom;verticalAlign=top;align=center;html=1;shape=mxgraph.aws3.internet;fillColor=#D2D3D3;gradientColor=none;" vertex="1" parent="Gay3dvUYhFVjylemArmb-1">
          <mxGeometry x="40" y="1520" width="79.5" height="79.5" as="geometry" />
        </mxCell>
        <mxCell id="Gay3dvUYhFVjylemArmb-61" style="edgeStyle=none;rounded=0;orthogonalLoop=1;jettySize=auto;html=1;entryX=0;entryY=0.5;entryDx=0;entryDy=0;entryPerimeter=0;startArrow=none;startFill=0;" edge="1" parent="Gay3dvUYhFVjylemArmb-1" source="Gay3dvUYhFVjylemArmb-33" target="Gay3dvUYhFVjylemArmb-37">
          <mxGeometry relative="1" as="geometry" />
        </mxCell>
        <mxCell id="Gay3dvUYhFVjylemArmb-33" value="Internet" style="outlineConnect=0;dashed=0;verticalLabelPosition=bottom;verticalAlign=top;align=center;html=1;shape=mxgraph.aws3.internet_2;fillColor=#D2D3D3;gradientColor=none;" vertex="1" parent="Gay3dvUYhFVjylemArmb-1">
          <mxGeometry x="200" y="1333" width="79.5" height="54" as="geometry" />
        </mxCell>
        <mxCell id="Gay3dvUYhFVjylemArmb-40" style="edgeStyle=none;rounded=0;orthogonalLoop=1;jettySize=auto;html=1;entryX=0;entryY=0.5;entryDx=0;entryDy=0;entryPerimeter=0;" edge="1" parent="Gay3dvUYhFVjylemArmb-1" source="Gay3dvUYhFVjylemArmb-37" target="Gay3dvUYhFVjylemArmb-39">
          <mxGeometry relative="1" as="geometry" />
        </mxCell>
        <mxCell id="Gay3dvUYhFVjylemArmb-37" value="CloudFront" style="points=[[0,0,0],[0.25,0,0],[0.5,0,0],[0.75,0,0],[1,0,0],[0,1,0],[0.25,1,0],[0.5,1,0],[0.75,1,0],[1,1,0],[0,0.25,0],[0,0.5,0],[0,0.75,0],[1,0.25,0],[1,0.5,0],[1,0.75,0]];outlineConnect=0;fontColor=#232F3E;gradientColor=#945DF2;gradientDirection=north;fillColor=#5A30B5;strokeColor=#ffffff;dashed=0;verticalLabelPosition=bottom;verticalAlign=top;align=center;html=1;fontSize=12;fontStyle=0;aspect=fixed;shape=mxgraph.aws4.resourceIcon;resIcon=mxgraph.aws4.cloudfront;" vertex="1" parent="Gay3dvUYhFVjylemArmb-1">
          <mxGeometry x="430" y="1321" width="78" height="78" as="geometry" />
        </mxCell>
        <mxCell id="Gay3dvUYhFVjylemArmb-45" style="edgeStyle=none;rounded=0;orthogonalLoop=1;jettySize=auto;html=1;startArrow=classic;startFill=1;" edge="1" parent="Gay3dvUYhFVjylemArmb-1" target="Gay3dvUYhFVjylemArmb-44">
          <mxGeometry relative="1" as="geometry">
            <mxPoint x="641" y="1430" as="sourcePoint" />
          </mxGeometry>
        </mxCell>
        <mxCell id="Gay3dvUYhFVjylemArmb-51" style="edgeStyle=none;rounded=0;orthogonalLoop=1;jettySize=auto;html=1;startArrow=none;startFill=0;" edge="1" parent="Gay3dvUYhFVjylemArmb-1" source="Gay3dvUYhFVjylemArmb-39" target="Gay3dvUYhFVjylemArmb-50">
          <mxGeometry relative="1" as="geometry" />
        </mxCell>
        <mxCell id="Gay3dvUYhFVjylemArmb-54" style="edgeStyle=none;rounded=0;orthogonalLoop=1;jettySize=auto;html=1;entryX=0;entryY=0.5;entryDx=0;entryDy=0;entryPerimeter=0;startArrow=none;startFill=0;" edge="1" parent="Gay3dvUYhFVjylemArmb-1" source="Gay3dvUYhFVjylemArmb-39" target="Gay3dvUYhFVjylemArmb-48">
          <mxGeometry relative="1" as="geometry" />
        </mxCell>
        <mxCell id="Gay3dvUYhFVjylemArmb-58" style="edgeStyle=none;rounded=0;orthogonalLoop=1;jettySize=auto;html=1;startArrow=none;startFill=0;" edge="1" parent="Gay3dvUYhFVjylemArmb-1" source="Gay3dvUYhFVjylemArmb-39">
          <mxGeometry relative="1" as="geometry">
            <mxPoint x="1320" y="1660" as="targetPoint" />
          </mxGeometry>
        </mxCell>
        <mxCell id="Gay3dvUYhFVjylemArmb-39" value="API Gateway" style="points=[[0,0,0],[0.25,0,0],[0.5,0,0],[0.75,0,0],[1,0,0],[0,1,0],[0.25,1,0],[0.5,1,0],[0.75,1,0],[1,1,0],[0,0.25,0],[0,0.5,0],[0,0.75,0],[1,0.25,0],[1,0.5,0],[1,0.75,0]];outlineConnect=0;fontColor=#232F3E;gradientColor=#945DF2;gradientDirection=north;fillColor=#5A30B5;strokeColor=#ffffff;dashed=0;verticalLabelPosition=bottom;verticalAlign=top;align=center;html=1;fontSize=12;fontStyle=0;aspect=fixed;shape=mxgraph.aws4.resourceIcon;resIcon=mxgraph.aws4.api_gateway;" vertex="1" parent="Gay3dvUYhFVjylemArmb-1">
          <mxGeometry x="600" y="1321" width="78" height="78" as="geometry" />
        </mxCell>
        <mxCell id="Gay3dvUYhFVjylemArmb-43" style="edgeStyle=none;rounded=0;orthogonalLoop=1;jettySize=auto;html=1;startArrow=classic;startFill=1;" edge="1" parent="Gay3dvUYhFVjylemArmb-1" source="Gay3dvUYhFVjylemArmb-41" target="Gay3dvUYhFVjylemArmb-39">
          <mxGeometry relative="1" as="geometry" />
        </mxCell>
        <mxCell id="Gay3dvUYhFVjylemArmb-41" value="" style="outlineConnect=0;fontColor=#232F3E;gradientColor=none;fillColor=#3334B9;strokeColor=none;dashed=0;verticalLabelPosition=bottom;verticalAlign=top;align=center;html=1;fontSize=12;fontStyle=0;aspect=fixed;pointerEvents=1;shape=mxgraph.aws4.cache_node;" vertex="1" parent="Gay3dvUYhFVjylemArmb-1">
          <mxGeometry x="602" y="1080" width="78" height="78" as="geometry" />
        </mxCell>
        <mxCell id="Gay3dvUYhFVjylemArmb-44" value="CloudWatch" style="points=[[0,0,0],[0.25,0,0],[0.5,0,0],[0.75,0,0],[1,0,0],[0,1,0],[0.25,1,0],[0.5,1,0],[0.75,1,0],[1,1,0],[0,0.25,0],[0,0.5,0],[0,0.75,0],[1,0.25,0],[1,0.5,0],[1,0.75,0]];points=[[0,0,0],[0.25,0,0],[0.5,0,0],[0.75,0,0],[1,0,0],[0,1,0],[0.25,1,0],[0.5,1,0],[0.75,1,0],[1,1,0],[0,0.25,0],[0,0.5,0],[0,0.75,0],[1,0.25,0],[1,0.5,0],[1,0.75,0]];outlineConnect=0;fontColor=#232F3E;gradientColor=#F34482;gradientDirection=north;fillColor=#BC1356;strokeColor=#ffffff;dashed=0;verticalLabelPosition=bottom;verticalAlign=top;align=center;html=1;fontSize=12;fontStyle=0;aspect=fixed;shape=mxgraph.aws4.resourceIcon;resIcon=mxgraph.aws4.cloudwatch_2;" vertex="1" parent="Gay3dvUYhFVjylemArmb-1">
          <mxGeometry x="602" y="1520" width="78" height="78" as="geometry" />
        </mxCell>
        <mxCell id="Gay3dvUYhFVjylemArmb-46" value="ECS" style="points=[[0,0,0],[0.25,0,0],[0.5,0,0],[0.75,0,0],[1,0,0],[0,1,0],[0.25,1,0],[0.5,1,0],[0.75,1,0],[1,1,0],[0,0.25,0],[0,0.5,0],[0,0.75,0],[1,0.25,0],[1,0.5,0],[1,0.75,0]];outlineConnect=0;fontColor=#232F3E;gradientColor=#F78E04;gradientDirection=north;fillColor=#D05C17;strokeColor=#ffffff;dashed=0;verticalLabelPosition=bottom;verticalAlign=top;align=center;html=1;fontSize=12;fontStyle=0;aspect=fixed;shape=mxgraph.aws4.resourceIcon;resIcon=mxgraph.aws4.ecs;" vertex="1" parent="Gay3dvUYhFVjylemArmb-1">
          <mxGeometry x="1080" y="1321" width="78" height="78" as="geometry" />
        </mxCell>
        <mxCell id="Gay3dvUYhFVjylemArmb-47" value="EKS" style="points=[[0,0,0],[0.25,0,0],[0.5,0,0],[0.75,0,0],[1,0,0],[0,1,0],[0.25,1,0],[0.5,1,0],[0.75,1,0],[1,1,0],[0,0.25,0],[0,0.5,0],[0,0.75,0],[1,0.25,0],[1,0.5,0],[1,0.75,0]];outlineConnect=0;fontColor=#232F3E;gradientColor=#F78E04;gradientDirection=north;fillColor=#D05C17;strokeColor=#ffffff;dashed=0;verticalLabelPosition=bottom;verticalAlign=top;align=center;html=1;fontSize=12;fontStyle=0;aspect=fixed;shape=mxgraph.aws4.resourceIcon;resIcon=mxgraph.aws4.eks;" vertex="1" parent="Gay3dvUYhFVjylemArmb-1">
          <mxGeometry x="1080" y="1442" width="78" height="78" as="geometry" />
        </mxCell>
        <mxCell id="Gay3dvUYhFVjylemArmb-48" value="Lambda" style="points=[[0,0,0],[0.25,0,0],[0.5,0,0],[0.75,0,0],[1,0,0],[0,1,0],[0.25,1,0],[0.5,1,0],[0.75,1,0],[1,1,0],[0,0.25,0],[0,0.5,0],[0,0.75,0],[1,0.25,0],[1,0.5,0],[1,0.75,0]];outlineConnect=0;fontColor=#232F3E;gradientColor=#F78E04;gradientDirection=north;fillColor=#D05C17;strokeColor=#ffffff;dashed=0;verticalLabelPosition=bottom;verticalAlign=top;align=center;html=1;fontSize=12;fontStyle=0;aspect=fixed;shape=mxgraph.aws4.resourceIcon;resIcon=mxgraph.aws4.lambda;" vertex="1" parent="Gay3dvUYhFVjylemArmb-1">
          <mxGeometry x="1080" y="1200" width="78" height="78" as="geometry" />
        </mxCell>
        <mxCell id="Gay3dvUYhFVjylemArmb-50" value="EC2" style="points=[[0,0,0],[0.25,0,0],[0.5,0,0],[0.75,0,0],[1,0,0],[0,1,0],[0.25,1,0],[0.5,1,0],[0.75,1,0],[1,1,0],[0,0.25,0],[0,0.5,0],[0,0.75,0],[1,0.25,0],[1,0.5,0],[1,0.75,0]];outlineConnect=0;fontColor=#232F3E;gradientColor=#F78E04;gradientDirection=north;fillColor=#D05C17;strokeColor=#ffffff;dashed=0;verticalLabelPosition=bottom;verticalAlign=top;align=center;html=1;fontSize=12;fontStyle=0;aspect=fixed;shape=mxgraph.aws4.resourceIcon;resIcon=mxgraph.aws4.ec2;" vertex="1" parent="Gay3dvUYhFVjylemArmb-1">
          <mxGeometry x="960" y="1321" width="78" height="78" as="geometry" />
        </mxCell>
        <mxCell id="Gay3dvUYhFVjylemArmb-59" value="Publicly Accessible Endpoint" style="outlineConnect=0;dashed=0;verticalLabelPosition=bottom;verticalAlign=top;align=center;html=1;shape=mxgraph.aws3.internet;fillColor=#D2D3D3;gradientColor=none;" vertex="1" parent="Gay3dvUYhFVjylemArmb-1">
          <mxGeometry x="1320" y="1599.5" width="79.5" height="79.5" as="geometry" />
        </mxCell>
        <mxCell id="Gay3dvUYhFVjylemArmb-62" value="User Interface" style="rounded=0;whiteSpace=wrap;html=1;align=center;horizontal=1;verticalAlign=top;dashed=1;" vertex="1" parent="Gay3dvUYhFVjylemArmb-1">
          <mxGeometry x="40" y="1920" width="200" height="760" as="geometry" />
        </mxCell>
        <mxCell id="Gay3dvUYhFVjylemArmb-63" value="Microservices" style="rounded=0;whiteSpace=wrap;html=1;align=center;horizontal=1;verticalAlign=top;dashed=1;" vertex="1" parent="Gay3dvUYhFVjylemArmb-1">
          <mxGeometry x="280" y="1920" width="360" height="760" as="geometry" />
        </mxCell>
        <mxCell id="Gay3dvUYhFVjylemArmb-64" value="Data Store" style="rounded=0;whiteSpace=wrap;html=1;align=center;horizontal=1;verticalAlign=top;dashed=1;" vertex="1" parent="Gay3dvUYhFVjylemArmb-1">
          <mxGeometry x="680" y="1920" width="240" height="760" as="geometry" />
        </mxCell>
        <mxCell id="Gay3dvUYhFVjylemArmb-65" value="Amazon S3" style="points=[[0,0,0],[0.25,0,0],[0.5,0,0],[0.75,0,0],[1,0,0],[0,1,0],[0.25,1,0],[0.5,1,0],[0.75,1,0],[1,1,0],[0,0.25,0],[0,0.5,0],[0,0.75,0],[1,0.25,0],[1,0.5,0],[1,0.75,0]];outlineConnect=0;fontColor=#232F3E;gradientColor=#60A337;gradientDirection=north;fillColor=#277116;strokeColor=#ffffff;dashed=0;verticalLabelPosition=bottom;verticalAlign=top;align=center;html=1;fontSize=12;fontStyle=0;aspect=fixed;shape=mxgraph.aws4.resourceIcon;resIcon=mxgraph.aws4.s3;" vertex="1" parent="Gay3dvUYhFVjylemArmb-1">
          <mxGeometry x="101" y="2450" width="78" height="78" as="geometry" />
        </mxCell>
        <mxCell id="Gay3dvUYhFVjylemArmb-66" style="edgeStyle=orthogonalEdgeStyle;rounded=0;orthogonalLoop=1;jettySize=auto;html=1;entryX=0.5;entryY=0;entryDx=0;entryDy=0;entryPerimeter=0;" edge="1" parent="Gay3dvUYhFVjylemArmb-1" target="Gay3dvUYhFVjylemArmb-65">
          <mxGeometry x="40" y="1840" as="geometry">
            <mxPoint x="140" y="2380" as="sourcePoint" />
          </mxGeometry>
        </mxCell>
        <mxCell id="Gay3dvUYhFVjylemArmb-67" value="CloudFront" style="points=[[0,0,0],[0.25,0,0],[0.5,0,0],[0.75,0,0],[1,0,0],[0,1,0],[0.25,1,0],[0.5,1,0],[0.75,1,0],[1,1,0],[0,0.25,0],[0,0.5,0],[0,0.75,0],[1,0.25,0],[1,0.5,0],[1,0.75,0]];outlineConnect=0;fontColor=#232F3E;gradientColor=#945DF2;gradientDirection=north;fillColor=#5A30B5;strokeColor=#ffffff;dashed=0;verticalLabelPosition=bottom;verticalAlign=top;align=center;html=1;fontSize=12;fontStyle=0;aspect=fixed;shape=mxgraph.aws4.resourceIcon;resIcon=mxgraph.aws4.cloudfront;" vertex="1" parent="Gay3dvUYhFVjylemArmb-1">
          <mxGeometry x="101" y="2271" width="78" height="78" as="geometry" />
        </mxCell>
        <mxCell id="Gay3dvUYhFVjylemArmb-69" style="edgeStyle=orthogonalEdgeStyle;rounded=0;orthogonalLoop=1;jettySize=auto;html=1;entryX=0;entryY=0.5;entryDx=0;entryDy=0;entryPerimeter=0;" edge="1" parent="Gay3dvUYhFVjylemArmb-1" source="Gay3dvUYhFVjylemArmb-67">
          <mxGeometry x="40" y="1840" as="geometry">
            <mxPoint x="330" y="2310" as="targetPoint" />
          </mxGeometry>
        </mxCell>
        <mxCell id="Gay3dvUYhFVjylemArmb-71" style="edgeStyle=orthogonalEdgeStyle;rounded=0;orthogonalLoop=1;jettySize=auto;html=1;" edge="1" parent="Gay3dvUYhFVjylemArmb-1">
          <mxGeometry x="40" y="1840" as="geometry">
            <mxPoint x="408" y="2310" as="sourcePoint" />
            <mxPoint x="500" y="2310" as="targetPoint" />
          </mxGeometry>
        </mxCell>
        <mxCell id="Gay3dvUYhFVjylemArmb-72" value="ElastiCache" style="points=[[0,0,0],[0.25,0,0],[0.5,0,0],[0.75,0,0],[1,0,0],[0,1,0],[0.25,1,0],[0.5,1,0],[0.75,1,0],[1,1,0],[0,0.25,0],[0,0.5,0],[0,0.75,0],[1,0.25,0],[1,0.5,0],[1,0.75,0]];outlineConnect=0;fontColor=#232F3E;gradientColor=#4D72F3;gradientDirection=north;fillColor=#3334B9;strokeColor=#ffffff;dashed=0;verticalLabelPosition=bottom;verticalAlign=top;align=center;html=1;fontSize=12;fontStyle=0;aspect=fixed;shape=mxgraph.aws4.resourceIcon;resIcon=mxgraph.aws4.elasticache;" vertex="1" parent="Gay3dvUYhFVjylemArmb-1">
          <mxGeometry x="760" y="2080" width="78" height="78" as="geometry" />
        </mxCell>
        <mxCell id="Gay3dvUYhFVjylemArmb-73" style="edgeStyle=none;rounded=0;orthogonalLoop=1;jettySize=auto;html=1;entryX=0;entryY=0.5;entryDx=0;entryDy=0;entryPerimeter=0;" edge="1" parent="Gay3dvUYhFVjylemArmb-1" target="Gay3dvUYhFVjylemArmb-72">
          <mxGeometry x="40" y="1840" as="geometry">
            <mxPoint x="578" y="2276.294117647059" as="sourcePoint" />
          </mxGeometry>
        </mxCell>
        <mxCell id="Gay3dvUYhFVjylemArmb-74" value="RDS" style="points=[[0,0,0],[0.25,0,0],[0.5,0,0],[0.75,0,0],[1,0,0],[0,1,0],[0.25,1,0],[0.5,1,0],[0.75,1,0],[1,1,0],[0,0.25,0],[0,0.5,0],[0,0.75,0],[1,0.25,0],[1,0.5,0],[1,0.75,0]];outlineConnect=0;fontColor=#232F3E;gradientColor=#4D72F3;gradientDirection=north;fillColor=#3334B9;strokeColor=#ffffff;dashed=0;verticalLabelPosition=bottom;verticalAlign=top;align=center;html=1;fontSize=12;fontStyle=0;aspect=fixed;shape=mxgraph.aws4.resourceIcon;resIcon=mxgraph.aws4.aurora;" vertex="1" parent="Gay3dvUYhFVjylemArmb-1">
          <mxGeometry x="761" y="2271" width="78" height="78" as="geometry" />
        </mxCell>
        <mxCell id="Gay3dvUYhFVjylemArmb-75" style="edgeStyle=none;rounded=0;orthogonalLoop=1;jettySize=auto;html=1;" edge="1" parent="Gay3dvUYhFVjylemArmb-1" target="Gay3dvUYhFVjylemArmb-74">
          <mxGeometry x="40" y="1840" as="geometry">
            <mxPoint x="578" y="2310" as="sourcePoint" />
          </mxGeometry>
        </mxCell>
        <mxCell id="Gay3dvUYhFVjylemArmb-76" value="DynamoDB" style="points=[[0,0,0],[0.25,0,0],[0.5,0,0],[0.75,0,0],[1,0,0],[0,1,0],[0.25,1,0],[0.5,1,0],[0.75,1,0],[1,1,0],[0,0.25,0],[0,0.5,0],[0,0.75,0],[1,0.25,0],[1,0.5,0],[1,0.75,0]];outlineConnect=0;fontColor=#232F3E;gradientColor=#4D72F3;gradientDirection=north;fillColor=#3334B9;strokeColor=#ffffff;dashed=0;verticalLabelPosition=bottom;verticalAlign=top;align=center;html=1;fontSize=12;fontStyle=0;aspect=fixed;shape=mxgraph.aws4.resourceIcon;resIcon=mxgraph.aws4.dynamodb;" vertex="1" parent="Gay3dvUYhFVjylemArmb-1">
          <mxGeometry x="760" y="2450" width="78" height="78" as="geometry" />
        </mxCell>
        <mxCell id="Gay3dvUYhFVjylemArmb-77" style="edgeStyle=none;rounded=0;orthogonalLoop=1;jettySize=auto;html=1;entryX=0;entryY=0.5;entryDx=0;entryDy=0;entryPerimeter=0;" edge="1" parent="Gay3dvUYhFVjylemArmb-1" target="Gay3dvUYhFVjylemArmb-76">
          <mxGeometry x="40" y="1840" as="geometry">
            <mxPoint x="578" y="2341.5882352941176" as="sourcePoint" />
          </mxGeometry>
        </mxCell>
        <mxCell id="Gay3dvUYhFVjylemArmb-78" value="&lt;font style=&quot;font-size: 21px&quot;&gt;Serverless microservices using AWS lambda&lt;/font&gt;" style="text;whiteSpace=wrap;html=1;" vertex="1" parent="Gay3dvUYhFVjylemArmb-1">
          <mxGeometry x="40" y="1840" width="880" height="30" as="geometry" />
        </mxCell>
        <mxCell id="Gay3dvUYhFVjylemArmb-79" value="Lambda" style="points=[[0,0,0],[0.25,0,0],[0.5,0,0],[0.75,0,0],[1,0,0],[0,1,0],[0.25,1,0],[0.5,1,0],[0.75,1,0],[1,1,0],[0,0.25,0],[0,0.5,0],[0,0.75,0],[1,0.25,0],[1,0.5,0],[1,0.75,0]];outlineConnect=0;fontColor=#232F3E;gradientColor=#F78E04;gradientDirection=north;fillColor=#D05C17;strokeColor=#ffffff;dashed=0;verticalLabelPosition=bottom;verticalAlign=top;align=center;html=1;fontSize=12;fontStyle=0;aspect=fixed;shape=mxgraph.aws4.resourceIcon;resIcon=mxgraph.aws4.lambda;" vertex="1" parent="Gay3dvUYhFVjylemArmb-1">
          <mxGeometry x="500" y="2271" width="78" height="78" as="geometry" />
        </mxCell>
        <mxCell id="Gay3dvUYhFVjylemArmb-80" value="API Gateway" style="points=[[0,0,0],[0.25,0,0],[0.5,0,0],[0.75,0,0],[1,0,0],[0,1,0],[0.25,1,0],[0.5,1,0],[0.75,1,0],[1,1,0],[0,0.25,0],[0,0.5,0],[0,0.75,0],[1,0.25,0],[1,0.5,0],[1,0.75,0]];outlineConnect=0;fontColor=#232F3E;gradientColor=#945DF2;gradientDirection=north;fillColor=#5A30B5;strokeColor=#ffffff;dashed=0;verticalLabelPosition=bottom;verticalAlign=top;align=center;html=1;fontSize=12;fontStyle=0;aspect=fixed;shape=mxgraph.aws4.resourceIcon;resIcon=mxgraph.aws4.api_gateway;" vertex="1" parent="Gay3dvUYhFVjylemArmb-1">
          <mxGeometry x="336" y="2271" width="78" height="78" as="geometry" />
        </mxCell>
        <mxCell id="Gay3dvUYhFVjylemArmb-81" value="&lt;font style=&quot;font-size: 21px&quot;&gt;Serverless microservices using AWS Fargate&lt;/font&gt;" style="text;whiteSpace=wrap;html=1;" vertex="1" parent="Gay3dvUYhFVjylemArmb-1">
          <mxGeometry x="40" y="2810" width="880" height="30" as="geometry" />
        </mxCell>
        <mxCell id="Gay3dvUYhFVjylemArmb-82" value="User Interface" style="rounded=0;whiteSpace=wrap;html=1;align=center;horizontal=1;verticalAlign=top;dashed=1;" vertex="1" parent="Gay3dvUYhFVjylemArmb-1">
          <mxGeometry x="40" y="2890" width="200" height="760" as="geometry" />
        </mxCell>
        <mxCell id="Gay3dvUYhFVjylemArmb-83" value="Microservices" style="rounded=0;whiteSpace=wrap;html=1;align=center;horizontal=1;verticalAlign=top;dashed=1;" vertex="1" parent="Gay3dvUYhFVjylemArmb-1">
          <mxGeometry x="280" y="2890" width="760" height="760" as="geometry" />
        </mxCell>
        <mxCell id="Gay3dvUYhFVjylemArmb-84" value="Data Store" style="rounded=0;whiteSpace=wrap;html=1;align=center;horizontal=1;verticalAlign=top;dashed=1;" vertex="1" parent="Gay3dvUYhFVjylemArmb-1">
          <mxGeometry x="1090" y="2880" width="240" height="760" as="geometry" />
        </mxCell>
        <mxCell id="Gay3dvUYhFVjylemArmb-85" value="Amazon S3" style="points=[[0,0,0],[0.25,0,0],[0.5,0,0],[0.75,0,0],[1,0,0],[0,1,0],[0.25,1,0],[0.5,1,0],[0.75,1,0],[1,1,0],[0,0.25,0],[0,0.5,0],[0,0.75,0],[1,0.25,0],[1,0.5,0],[1,0.75,0]];outlineConnect=0;fontColor=#232F3E;gradientColor=#60A337;gradientDirection=north;fillColor=#277116;strokeColor=#ffffff;dashed=0;verticalLabelPosition=bottom;verticalAlign=top;align=center;html=1;fontSize=12;fontStyle=0;aspect=fixed;shape=mxgraph.aws4.resourceIcon;resIcon=mxgraph.aws4.s3;" vertex="1" parent="Gay3dvUYhFVjylemArmb-1">
          <mxGeometry x="101" y="3420" width="78" height="78" as="geometry" />
        </mxCell>
        <mxCell id="Gay3dvUYhFVjylemArmb-86" style="edgeStyle=orthogonalEdgeStyle;rounded=0;orthogonalLoop=1;jettySize=auto;html=1;entryX=0.5;entryY=0;entryDx=0;entryDy=0;entryPerimeter=0;" edge="1" parent="Gay3dvUYhFVjylemArmb-1" target="Gay3dvUYhFVjylemArmb-85">
          <mxGeometry x="40" y="2810" as="geometry">
            <mxPoint x="140" y="3350" as="sourcePoint" />
          </mxGeometry>
        </mxCell>
        <mxCell id="Gay3dvUYhFVjylemArmb-100" style="edgeStyle=none;rounded=0;orthogonalLoop=1;jettySize=auto;html=1;startArrow=none;startFill=0;" edge="1" parent="Gay3dvUYhFVjylemArmb-1" source="Gay3dvUYhFVjylemArmb-87" target="Gay3dvUYhFVjylemArmb-99">
          <mxGeometry relative="1" as="geometry" />
        </mxCell>
        <mxCell id="Gay3dvUYhFVjylemArmb-87" value="CloudFront" style="points=[[0,0,0],[0.25,0,0],[0.5,0,0],[0.75,0,0],[1,0,0],[0,1,0],[0.25,1,0],[0.5,1,0],[0.75,1,0],[1,1,0],[0,0.25,0],[0,0.5,0],[0,0.75,0],[1,0.25,0],[1,0.5,0],[1,0.75,0]];outlineConnect=0;fontColor=#232F3E;gradientColor=#945DF2;gradientDirection=north;fillColor=#5A30B5;strokeColor=#ffffff;dashed=0;verticalLabelPosition=bottom;verticalAlign=top;align=center;html=1;fontSize=12;fontStyle=0;aspect=fixed;shape=mxgraph.aws4.resourceIcon;resIcon=mxgraph.aws4.cloudfront;" vertex="1" parent="Gay3dvUYhFVjylemArmb-1">
          <mxGeometry x="101" y="3241" width="78" height="78" as="geometry" />
        </mxCell>
        <mxCell id="Gay3dvUYhFVjylemArmb-88" value="ALB" style="points=[[0,0,0],[0.25,0,0],[0.5,0,0],[0.75,0,0],[1,0,0],[0,1,0],[0.25,1,0],[0.5,1,0],[0.75,1,0],[1,1,0],[0,0.25,0],[0,0.5,0],[0,0.75,0],[1,0.25,0],[1,0.5,0],[1,0.75,0]];outlineConnect=0;fontColor=#232F3E;gradientColor=#F78E04;gradientDirection=north;fillColor=#D05C17;strokeColor=#ffffff;dashed=0;verticalLabelPosition=bottom;verticalAlign=top;align=center;html=1;fontSize=12;fontStyle=0;aspect=fixed;shape=mxgraph.aws4.resourceIcon;resIcon=mxgraph.aws4.elastic_load_balancing;" vertex="1" parent="Gay3dvUYhFVjylemArmb-1">
          <mxGeometry x="618" y="3241" width="78" height="78" as="geometry" />
        </mxCell>
        <mxCell id="Gay3dvUYhFVjylemArmb-91" style="edgeStyle=orthogonalEdgeStyle;rounded=0;orthogonalLoop=1;jettySize=auto;html=1;" edge="1" parent="Gay3dvUYhFVjylemArmb-1" source="Gay3dvUYhFVjylemArmb-88" target="Gay3dvUYhFVjylemArmb-98">
          <mxGeometry x="40" y="2810" as="geometry">
            <mxPoint x="500" y="3280" as="targetPoint" />
          </mxGeometry>
        </mxCell>
        <mxCell id="Gay3dvUYhFVjylemArmb-94" value="RDS Aurora" style="points=[[0,0,0],[0.25,0,0],[0.5,0,0],[0.75,0,0],[1,0,0],[0,1,0],[0.25,1,0],[0.5,1,0],[0.75,1,0],[1,1,0],[0,0.25,0],[0,0.5,0],[0,0.75,0],[1,0.25,0],[1,0.5,0],[1,0.75,0]];outlineConnect=0;fontColor=#232F3E;gradientColor=#4D72F3;gradientDirection=north;fillColor=#3334B9;strokeColor=#ffffff;dashed=0;verticalLabelPosition=bottom;verticalAlign=top;align=center;html=1;fontSize=12;fontStyle=0;aspect=fixed;shape=mxgraph.aws4.resourceIcon;resIcon=mxgraph.aws4.aurora;" vertex="1" parent="Gay3dvUYhFVjylemArmb-1">
          <mxGeometry x="1180" y="3241" width="78" height="78" as="geometry" />
        </mxCell>
        <mxCell id="Gay3dvUYhFVjylemArmb-95" style="edgeStyle=none;rounded=0;orthogonalLoop=1;jettySize=auto;html=1;" edge="1" parent="Gay3dvUYhFVjylemArmb-1" target="Gay3dvUYhFVjylemArmb-94">
          <mxGeometry x="40" y="2810" as="geometry">
            <mxPoint x="890" y="3280" as="sourcePoint" />
          </mxGeometry>
        </mxCell>
        <mxCell id="Gay3dvUYhFVjylemArmb-96" value="DynamoDB" style="points=[[0,0,0],[0.25,0,0],[0.5,0,0],[0.75,0,0],[1,0,0],[0,1,0],[0.25,1,0],[0.5,1,0],[0.75,1,0],[1,1,0],[0,0.25,0],[0,0.5,0],[0,0.75,0],[1,0.25,0],[1,0.5,0],[1,0.75,0]];outlineConnect=0;fontColor=#232F3E;gradientColor=#4D72F3;gradientDirection=north;fillColor=#3334B9;strokeColor=#ffffff;dashed=0;verticalLabelPosition=bottom;verticalAlign=top;align=center;html=1;fontSize=12;fontStyle=0;aspect=fixed;shape=mxgraph.aws4.resourceIcon;resIcon=mxgraph.aws4.dynamodb;" vertex="1" parent="Gay3dvUYhFVjylemArmb-1">
          <mxGeometry x="1180" y="3480" width="78" height="78" as="geometry" />
        </mxCell>
        <mxCell id="Gay3dvUYhFVjylemArmb-97" style="edgeStyle=none;rounded=0;orthogonalLoop=1;jettySize=auto;html=1;entryX=0;entryY=0.5;entryDx=0;entryDy=0;entryPerimeter=0;exitX=1;exitY=1;exitDx=0;exitDy=0;exitPerimeter=0;" edge="1" parent="Gay3dvUYhFVjylemArmb-1" source="Gay3dvUYhFVjylemArmb-98" target="Gay3dvUYhFVjylemArmb-96">
          <mxGeometry x="40" y="2810" as="geometry">
            <mxPoint x="578" y="3294.5413416536667" as="sourcePoint" />
          </mxGeometry>
        </mxCell>
        <mxCell id="Gay3dvUYhFVjylemArmb-104" style="edgeStyle=none;rounded=0;orthogonalLoop=1;jettySize=auto;html=1;startArrow=classic;startFill=1;" edge="1" parent="Gay3dvUYhFVjylemArmb-1" source="Gay3dvUYhFVjylemArmb-98">
          <mxGeometry relative="1" as="geometry">
            <mxPoint x="849" y="3170" as="targetPoint" />
          </mxGeometry>
        </mxCell>
        <mxCell id="Gay3dvUYhFVjylemArmb-98" value="Fargate" style="points=[[0,0,0],[0.25,0,0],[0.5,0,0],[0.75,0,0],[1,0,0],[0,1,0],[0.25,1,0],[0.5,1,0],[0.75,1,0],[1,1,0],[0,0.25,0],[0,0.5,0],[0,0.75,0],[1,0.25,0],[1,0.5,0],[1,0.75,0]];outlineConnect=0;fontColor=#232F3E;gradientColor=#F78E04;gradientDirection=north;fillColor=#D05C17;strokeColor=#ffffff;dashed=0;verticalLabelPosition=bottom;verticalAlign=top;align=center;html=1;fontSize=12;fontStyle=0;aspect=fixed;shape=mxgraph.aws4.resourceIcon;resIcon=mxgraph.aws4.fargate;" vertex="1" parent="Gay3dvUYhFVjylemArmb-1">
          <mxGeometry x="810" y="3241" width="78" height="78" as="geometry" />
        </mxCell>
        <mxCell id="Gay3dvUYhFVjylemArmb-101" style="edgeStyle=none;rounded=0;orthogonalLoop=1;jettySize=auto;html=1;startArrow=none;startFill=0;" edge="1" parent="Gay3dvUYhFVjylemArmb-1" source="Gay3dvUYhFVjylemArmb-99" target="Gay3dvUYhFVjylemArmb-88">
          <mxGeometry relative="1" as="geometry" />
        </mxCell>
        <mxCell id="Gay3dvUYhFVjylemArmb-99" value="API Gateway" style="points=[[0,0,0],[0.25,0,0],[0.5,0,0],[0.75,0,0],[1,0,0],[0,1,0],[0.25,1,0],[0.5,1,0],[0.75,1,0],[1,1,0],[0,0.25,0],[0,0.5,0],[0,0.75,0],[1,0.25,0],[1,0.5,0],[1,0.75,0]];outlineConnect=0;fontColor=#232F3E;gradientColor=#F54749;gradientDirection=north;fillColor=#C7131F;strokeColor=#ffffff;dashed=0;verticalLabelPosition=bottom;verticalAlign=top;align=center;html=1;fontSize=12;fontStyle=0;aspect=fixed;shape=mxgraph.aws4.resourceIcon;resIcon=mxgraph.aws4.api_gateway;" vertex="1" parent="Gay3dvUYhFVjylemArmb-1">
          <mxGeometry x="380" y="3241" width="78" height="78" as="geometry" />
        </mxCell>
        <mxCell id="Gay3dvUYhFVjylemArmb-103" value="Docker Containers" style="shape=image;html=1;verticalAlign=top;verticalLabelPosition=bottom;labelBackgroundColor=#ffffff;imageAspect=0;aspect=fixed;image=https://cdn0.iconfinder.com/data/icons/logos-21/40/Docker-128.png;dashed=1;" vertex="1" parent="Gay3dvUYhFVjylemArmb-1">
          <mxGeometry x="785" y="3010" width="128" height="128" as="geometry" />
        </mxCell>
      </root>
    </mxGraphModel>
  </diagram>
</mxfile>
